<svg xmlns="http://www.w3.org/2000/svg" width="1920" height="1080"><path d="M1384,1442L979,1503L1923,1530Z" fill="#205393" stroke="#205393" stroke-width="1.51"/><path d="M1120,-441L1717,-443L2171,-483Z" fill="#9eadc0" stroke="#9eadc0" stroke-width="1.51"/><path d="M-88,-510L1120,-441L2171,-483Z" fill="#a9d4cc" stroke="#a9d4cc" stroke-width="1.51"/><path d="M2171,-483L2242,-91L2308,180Z" fill="#868799" stroke="#868799" stroke-width="1.51"/><path d="M2036,361L1993,506L2379,585Z" fill="#4474a8" stroke="#4474a8" stroke-width="1.51"/><path d="M2308,180L2036,361L2379,585Z" fill="#4c749c" stroke="#4c749c" stroke-width="1.51"/><path d="M2263,698L1974,950L2403,1232Z" fill="#234f98" stroke="#234f98" stroke-width="1.51"/><path d="M1957,1278L2355,1457L2403,1232Z" fill="#1f2f87" stroke="#1f2f87" stroke-width="1.51"/><path d="M1974,950L1957,1278L2403,1232Z" fill="#254198" stroke="#254198" stroke-width="1.51"/><path d="M2379,585L2263,698L2403,1232Z" fill="#1f5592" stroke="#1f5592" stroke-width="1.51"/><path d="M2171,-483L1997,-343L2242,-91Z" fill="#958fa5" stroke="#958fa5" stroke-width="1.51"/><path d="M1993,506L2263,698L2379,585Z" fill="#356ba1" stroke="#356ba1" stroke-width="1.51"/><path d="M1957,1278L1923,1530L2355,1457Z" fill="#203089" stroke="#203089" stroke-width="1.51"/><path d="M1997,-343L2098,-83L2242,-91Z" fill="#908da4" stroke="#908da4" stroke-width="1.51"/><path d="M2242,-91L2098,-83L2308,180Z" fill="#7d859b" stroke="#7d859b" stroke-width="1.51"/><path d="M2098,-83L2036,361L2308,180Z" fill="#6d81a3" stroke="#6d81a3" stroke-width="1.51"/><path d="M1993,506L1974,950L2263,698Z" fill="#3268ab" stroke="#3268ab" stroke-width="1.51"/><path d="M1120,-441L1526,-392L1717,-443Z" fill="#a0bdc3" stroke="#a0bdc3" stroke-width="1.51"/><path d="M1790,662L1974,950L1993,506Z" fill="#3172b0" stroke="#3172b0" stroke-width="1.51"/><path d="M1809,282L2036,361L2098,-83Z" fill="#6b88ab" stroke="#6b88ab" stroke-width="1.51"/><path d="M1782,-54L1809,282L2098,-83Z" fill="#7f93ac" stroke="#7f93ac" stroke-width="1.51"/><path d="M1717,-443L1997,-343L2171,-483Z" fill="#9c9ab6" stroke="#9c9ab6" stroke-width="1.51"/><path d="M403,1418L137,1448L979,1503Z" fill="#5e7999" stroke="#5e7999" stroke-width="1.51"/><path d="M1787,1163L1957,1278L1974,950Z" fill="#264ea1" stroke="#264ea1" stroke-width="1.51"/><path d="M1997,-343L1782,-54L2098,-83Z" fill="#9195aa" stroke="#9195aa" stroke-width="1.51"/><path d="M1708,1417L1384,1442L1923,1530Z" fill="#1f458f" stroke="#1f458f" stroke-width="1.51"/><path d="M1809,282L1993,506L2036,361Z" fill="#5182ae" stroke="#5182ae" stroke-width="1.51"/><path d="M1708,1417L1923,1530L1957,1278Z" fill="#223d90" stroke="#223d90" stroke-width="1.51"/><path d="M1790,662L1689,889L1974,950Z" fill="#266eb0" stroke="#266eb0" stroke-width="1.51"/><path d="M1717,-443L1782,-54L1997,-343Z" fill="#99a0af" stroke="#99a0af" stroke-width="1.51"/><path d="M1809,282L1790,662L1993,506Z" fill="#4483b2" stroke="#4483b2" stroke-width="1.51"/><path d="M1689,889L1787,1163L1974,950Z" fill="#255ea8" stroke="#255ea8" stroke-width="1.51"/><path d="M1787,1163L1708,1417L1957,1278Z" fill="#26479d" stroke="#26479d" stroke-width="1.51"/><path d="M1717,-443L1526,-392L1782,-54Z" fill="#9aaab3" stroke="#9aaab3" stroke-width="1.51"/><path d="M1329,-67L1307,232L1782,-54Z" fill="#82b1b7" stroke="#82b1b7" stroke-width="1.51"/><path d="M1782,-54L1307,232L1809,282Z" fill="#709fb4" stroke="#709fb4" stroke-width="1.51"/><path d="M1434,643L1790,662L1809,282Z" fill="#3a8cb7" stroke="#3a8cb7" stroke-width="1.51"/><path d="M1307,232L1434,643L1809,282Z" fill="#4d9dba" stroke="#4d9dba" stroke-width="1.51"/><path d="M1526,-392L1329,-67L1782,-54Z" fill="#94b1b5" stroke="#94b1b5" stroke-width="1.51"/><path d="M1689,889L1309,922L1787,1163Z" fill="#236caf" stroke="#236caf" stroke-width="1.51"/><path d="M1309,922L1283,1278L1787,1163Z" fill="#256aae" stroke="#256aae" stroke-width="1.51"/><path d="M1283,1278L1708,1417L1787,1163Z" fill="#2855a4" stroke="#2855a4" stroke-width="1.51"/><path d="M1434,643L1689,889L1790,662Z" fill="#2981b7" stroke="#2981b7" stroke-width="1.51"/><path d="M1283,1278L1384,1442L1708,1417Z" fill="#2757a0" stroke="#2757a0" stroke-width="1.51"/><path d="M1434,643L1309,922L1689,889Z" fill="#2085bb" stroke="#2085bb" stroke-width="1.51"/><path d="M145,-364L568,-266L1120,-441Z" fill="#bce3bf" stroke="#bce3bf" stroke-width="1.51"/><path d="M-88,-510L145,-364L1120,-441Z" fill="#d1ecc3" stroke="#d1ecc3" stroke-width="1.51"/><path d="M1307,232L1252,257L1434,643Z" fill="#4eaac0" stroke="#4eaac0" stroke-width="1.51"/><path d="M1182,-161L1329,-67L1526,-392Z" fill="#99c1ba" stroke="#99c1ba" stroke-width="1.51"/><path d="M1120,-441L1182,-161L1526,-392Z" fill="#a0c7c1" stroke="#a0c7c1" stroke-width="1.51"/><path d="M1252,257L982,494L1434,643Z" fill="#44acc2" stroke="#44acc2" stroke-width="1.51"/><path d="M1064,838L1309,922L1434,643Z" fill="#2294c1" stroke="#2294c1" stroke-width="1.51"/><path d="M982,494L1064,838L1434,643Z" fill="#33a3c2" stroke="#33a3c2" stroke-width="1.51"/><path d="M1064,1243L1283,1278L1309,922Z" fill="#2e76b2" stroke="#2e76b2" stroke-width="1.51"/><path d="M1252,257L1307,232L1329,-67Z" fill="#74b8bd" stroke="#74b8bd" stroke-width="1.51"/><path d="M1283,1278L979,1503L1384,1442Z" fill="#2d64a1" stroke="#2d64a1" stroke-width="1.51"/><path d="M1182,-161L946,235L1252,257Z" fill="#7dc1bd" stroke="#7dc1bd" stroke-width="1.51"/><path d="M1064,1243L979,1503L1283,1278Z" fill="#376caa" stroke="#376caa" stroke-width="1.51"/><path d="M1064,838L1064,1243L1309,922Z" fill="#2e86b8" stroke="#2e86b8" stroke-width="1.51"/><path d="M1182,-161L1252,257L1329,-67Z" fill="#89c0bc" stroke="#89c0bc" stroke-width="1.51"/><path d="M946,235L982,494L1252,257Z" fill="#5cbac0" stroke="#5cbac0" stroke-width="1.51"/><path d="M982,494L877,698L1064,838Z" fill="#39acc3" stroke="#39acc3" stroke-width="1.51"/><path d="M568,-266L775,-233L1120,-441Z" fill="#afdcbf" stroke="#afdcbf" stroke-width="1.51"/><path d="M734,-71L946,235L1182,-161Z" fill="#91d0bd" stroke="#91d0bd" stroke-width="1.51"/><path d="M775,-233L734,-71L1182,-161Z" fill="#a2d6bb" stroke="#a2d6bb" stroke-width="1.51"/><path d="M1120,-441L775,-233L1182,-161Z" fill="#a5d3be" stroke="#a5d3be" stroke-width="1.51"/><path d="M701,1379L403,1418L979,1503Z" fill="#4e759d" stroke="#4e759d" stroke-width="1.51"/><path d="M878,1265L979,1503L1064,1243Z" fill="#3e73ab" stroke="#3e73ab" stroke-width="1.51"/><path d="M878,1265L1064,1243L1064,838Z" fill="#3783b4" stroke="#3783b4" stroke-width="1.51"/><path d="M596,781L626,1190L877,698Z" fill="#51a2bb" stroke="#51a2bb" stroke-width="1.51"/><path d="M626,1190L878,1265L1064,838Z" fill="#4489b4" stroke="#4489b4" stroke-width="1.51"/><path d="M877,698L626,1190L1064,838Z" fill="#429bbc" stroke="#429bbc" stroke-width="1.51"/><path d="M878,1265L701,1379L979,1503Z" fill="#4574a5" stroke="#4574a5" stroke-width="1.51"/><path d="M946,235L728,392L982,494Z" fill="#5fbfc0" stroke="#5fbfc0" stroke-width="1.51"/><path d="M728,392L877,698L982,494Z" fill="#4db9c3" stroke="#4db9c3" stroke-width="1.51"/><path d="M734,-71L565,287L946,235Z" fill="#88cfbc" stroke="#88cfbc" stroke-width="1.51"/><path d="M565,287L728,392L946,235Z" fill="#71c7be" stroke="#71c7be" stroke-width="1.51"/><path d="M728,392L596,781L877,698Z" fill="#54b7c1" stroke="#54b7c1" stroke-width="1.51"/><path d="M626,1190L701,1379L878,1265Z" fill="#527eac" stroke="#527eac" stroke-width="1.51"/><path d="M-145,1399L-337,1414L137,1448Z" fill="#8d8a9a" stroke="#8d8a9a" stroke-width="1.51"/><path d="M398,449L596,781L728,392Z" fill="#66c2c0" stroke="#66c2c0" stroke-width="1.51"/><path d="M440,-57L565,287L734,-71Z" fill="#a0d9b8" stroke="#a0d9b8" stroke-width="1.51"/><path d="M568,-266L734,-71L775,-233Z" fill="#b0ddb9" stroke="#b0ddb9" stroke-width="1.51"/><path d="M565,287L398,449L728,392Z" fill="#78c9bd" stroke="#78c9bd" stroke-width="1.51"/><path d="M568,-266L440,-57L734,-71Z" fill="#b1dfb7" stroke="#b1dfb7" stroke-width="1.51"/><path d="M596,781L177,865L626,1190Z" fill="#6aa4b7" stroke="#6aa4b7" stroke-width="1.51"/><path d="M626,1190L403,1418L701,1379Z" fill="#5f7ea9" stroke="#5f7ea9" stroke-width="1.51"/><path d="M114,1145L403,1418L626,1190Z" fill="#738aaa" stroke="#738aaa" stroke-width="1.51"/><path d="M177,865L114,1145L626,1190Z" fill="#7a9db1" stroke="#7a9db1" stroke-width="1.51"/><path d="M398,449L177,865L596,781Z" fill="#77bcbe" stroke="#77bcbe" stroke-width="1.51"/><path d="M440,-57L172,379L565,287Z" fill="#9ed8b9" stroke="#9ed8b9" stroke-width="1.51"/><path d="M172,379L398,449L565,287Z" fill="#8dd0bb" stroke="#8dd0bb" stroke-width="1.51"/><path d="M145,-364L440,-57L568,-266Z" fill="#cae9b4" stroke="#cae9b4" stroke-width="1.51"/><path d="M149,463L177,865L398,449Z" fill="#8bcabd" stroke="#8bcabd" stroke-width="1.51"/><path d="M114,1145L137,1448L403,1418Z" fill="#8289a6" stroke="#8289a6" stroke-width="1.51"/><path d="M117,-32L172,379L440,-57Z" fill="#bae3b6" stroke="#bae3b6" stroke-width="1.51"/><path d="M145,-364L117,-32L440,-57Z" fill="#d1ecb3" stroke="#d1ecb3" stroke-width="1.51"/><path d="M172,379L149,463L398,449Z" fill="#96d3bb" stroke="#96d3bb" stroke-width="1.51"/><path d="M35,-69L-208,147L117,-32Z" fill="#d3edb3" stroke="#d3edb3" stroke-width="1.51"/><path d="M114,1145L-64,1278L137,1448Z" fill="#8b8fa8" stroke="#8b8fa8" stroke-width="1.51"/><path d="M35,-69L117,-32L145,-364Z" fill="#d9f0b3" stroke="#d9f0b3" stroke-width="1.51"/><path d="M-40,481L-16,778L149,463Z" fill="#99d0bc" stroke="#99d0bc" stroke-width="1.51"/><path d="M117,-32L-208,147L172,379Z" fill="#bee4b6" stroke="#bee4b6" stroke-width="1.51"/><path d="M-208,147L-40,481L172,379Z" fill="#aeddb8" stroke="#aeddb8" stroke-width="1.51"/><path d="M149,463L-16,778L177,865Z" fill="#91c5bc" stroke="#91c5bc" stroke-width="1.51"/><path d="M-16,778L114,1145L177,865Z" fill="#8cb1b5" stroke="#8cb1b5" stroke-width="1.51"/><path d="M-40,481L149,463L172,379Z" fill="#9fd6bb" stroke="#9fd6bb" stroke-width="1.51"/><path d="M-278,-330L35,-69L145,-364Z" fill="#e7f6b2" stroke="#e7f6b2" stroke-width="1.51"/><path d="M-88,-510L-278,-330L145,-364Z" fill="#eef8bd" stroke="#eef8bd" stroke-width="1.51"/><path d="M-16,778L-291,834L114,1145Z" fill="#95b4b6" stroke="#95b4b6" stroke-width="1.51"/><path d="M-291,834L-64,1278L114,1145Z" fill="#94a4af" stroke="#94a4af" stroke-width="1.51"/><path d="M-64,1278L-145,1399L137,1448Z" fill="#8c8ba1" stroke="#8c8ba1" stroke-width="1.51"/><path d="M-208,147L-282,234L-40,481Z" fill="#b9e2b7" stroke="#b9e2b7" stroke-width="1.51"/><path d="M-272,-85L-208,147L35,-69Z" fill="#dbf0b3" stroke="#dbf0b3" stroke-width="1.51"/><path d="M-278,-330L-272,-85L35,-69Z" fill="#e7f5b2" stroke="#e7f5b2" stroke-width="1.51"/><path d="M-291,834L-538,1022L-64,1278Z" fill="#9baab7" stroke="#9baab7" stroke-width="1.51"/><path d="M-282,234L-321,403L-40,481Z" fill="#b3dfbb" stroke="#b3dfbb" stroke-width="1.51"/><path d="M-321,403L-291,834L-40,481Z" fill="#a6d4bf" stroke="#a6d4bf" stroke-width="1.51"/><path d="M-40,481L-291,834L-16,778Z" fill="#9ecabb" stroke="#9ecabb" stroke-width="1.51"/><path d="M-538,1022L-337,1414L-64,1278Z" fill="#9a99b1" stroke="#9a99b1" stroke-width="1.51"/><path d="M-337,1414L-145,1399L-64,1278Z" fill="#948ea2" stroke="#948ea2" stroke-width="1.51"/><path d="M-272,-85L-282,234L-208,147Z" fill="#d2edb9" stroke="#d2edb9" stroke-width="1.51"/><path d="M-321,403L-538,1022L-291,834Z" fill="#a3c9c6" stroke="#a3c9c6" stroke-width="1.51"/><path d="M-321,403L-282,234L-272,-85Z" fill="#c8e9bc" stroke="#c8e9bc" stroke-width="1.51"/><path d="M-278,-330L-538,1022L-272,-85Z" fill="#c8e9c0" stroke="#c8e9c0" stroke-width="1.51"/><path d="M-538,1022L-321,403L-272,-85Z" fill="#b1ddc5" stroke="#b1ddc5" stroke-width="1.51"/></svg>